<svg version="1.2" xmlns="http://www.w3.org/2000/svg" viewBox="0 0 166 128" width="166" height="128"><defs><linearGradient id="P" gradientUnits="userSpaceOnUse"/><linearGradient id="g1" x2="1" href="#P" gradientTransform="matrix(44.938,0,0,27.833,110.083,72.712)"><stop stop-color="#007940"/><stop offset=".23" stop-color="#00873f"/><stop offset=".74" stop-color="#40a737"/><stop offset="1" stop-color="#5cb531"/></linearGradient><linearGradient id="g2" x2="1" href="#P" gradientTransform="matrix(44.941,0,0,109.2,110.082,65.706)"><stop stop-color="#007940"/><stop offset=".23" stop-color="#00873f"/><stop offset=".74" stop-color="#40a737"/><stop offset="1" stop-color="#5cb531"/></linearGradient><linearGradient id="g3" x2="1" href="#P" gradientTransform="matrix(44.939,0,0,27.85,110.082,58.087)"><stop stop-color="#007940"/><stop offset=".23" stop-color="#00873f"/><stop offset=".74" stop-color="#40a737"/><stop offset="1" stop-color="#5cb531"/></linearGradient><linearGradient id="g4" x2="1" href="#P" gradientTransform="matrix(45.633,0,0,110.779,9.479,65.706)"><stop stop-color="#1f286f"/><stop offset=".48" stop-color="#004e94"/><stop offset=".83" stop-color="#0066b1"/><stop offset="1" stop-color="#006fbc"/></linearGradient><linearGradient id="g5" x2="1" href="#P" gradientTransform="matrix(44.321,0,0,107.792,59.541,65.706)"><stop stop-color="#6c2c2f"/><stop offset=".17" stop-color="#882730"/><stop offset=".57" stop-color="#be1833"/><stop offset=".86" stop-color="#dc0436"/><stop offset="1" stop-color="#e60039"/></linearGradient></defs><style>.a{fill:#fff}.b{fill:url(#g1)}.c{fill:url(#g2)}.d{fill:url(#g3)}.e{fill:url(#g4)}.f{fill:url(#g5)}</style><path class="a" d="m164 103.3c0 14-11.4 25.4-25.4 25.4h-138.2v-100.6c0-14 11.4-25.4 25.4-25.4h138.2z"/><path class="b" d="m119 77.5h10.5c0.3 0 1-0.1 1.3-0.1 2-0.4 3.7-2.2 3.7-4.7 0-2.4-1.7-4.2-3.7-4.7-0.3-0.1-0.9-0.1-1.3-0.1h-10.5z"/><path class="c" d="m128.3 11.2c-10 0-18.2 8.1-18.2 18.2v18.9h25.7c0.6 0 1.3 0 1.8 0.1 5.8 0.3 10.1 3.3 10.1 8.5 0 4.1-2.9 7.6-8.3 8.3v0.2c5.9 0.4 10.4 3.7 10.4 8.8 0 5.5-5 9.1-11.6 9.1h-28.2v37h26.7c10 0 18.2-8.1 18.2-18.2v-90.9z"/><path class="d" d="m133.2 58.1c0-2.4-1.7-4-3.7-4.3-0.2 0-0.7-0.1-1-0.1h-9.5v8.8h9.5c0.3 0 0.9 0 1-0.1 2-0.3 3.7-1.9 3.7-4.3z"/><path class="e" d="m27.7 11.2c-10 0-18.2 8.1-18.2 18.2v44.9c5.1 2.5 10.4 4.1 15.7 4.1 6.3 0 9.7-3.8 9.7-9v-21.2h15.6v21.1c0 8.2-5.1 14.9-22.4 14.9-10.5 0-18.7-2.3-18.7-2.3v38.3h26.7c10 0 18.2-8.1 18.2-18.2v-90.8z"/><path class="f" d="m78 11.2c-10 0-18.2 8.1-18.2 18.2v23.8c4.6-3.9 12.6-6.4 25.5-5.8 6.9 0.3 14.3 2.2 14.3 2.2v7.7c-3.7-1.9-8.1-3.6-13.8-4-9.8-0.7-15.7 4.1-15.7 12.5 0 8.5 5.9 13.3 15.7 12.5 5.7-0.4 10.1-2.2 13.8-4v7.7c0 0-7.3 1.9-14.3 2.2-12.9 0.6-20.9-1.9-25.5-5.8v42h26.7c10 0 18.2-8.1 18.2-18.2v-91z"/><path fill-rule="evenodd" class="a" d="m14.7 152.4h-2.9c-0.2 0-0.2 0-0.2-0.2v-1.4c0-0.2 0-0.2 0.2-0.2h3.2v-2c0-1.5 0-2.3-0.2-3.2 0.7 0 1.4 0.1 2 0.2 0.2 0 0.3 0.1 0.3 0.2 0 0.1 0 0.3-0.1 0.5-0.1 0.3-0.1 0.9-0.1 2.3v2h4v-2.3c0-1.2 0-2-0.2-2.9 0.7 0 1.3 0.1 1.9 0.1 0.2 0 0.3 0.1 0.3 0.2 0 0.2-0.1 0.3-0.1 0.5-0.1 0.3-0.1 0.9-0.1 2v2.3h4.2v-2.3c0-1.2 0-2.1-0.2-3 0.7 0 1.3 0.1 1.9 0.1 0.2 0 0.3 0.1 0.3 0.2 0 0.2-0.1 0.3-0.1 0.5-0.1 0.3-0.1 0.9-0.1 2.1v2.3h3.5c0.2 0 0.2 0 0.2 0.2v1.4c0 0.2 0 0.2-0.2 0.2h-3.5v7c0 0.2 0 0.2-0.2 0.2h-1.4c-0.2 0-0.2 0-0.2-0.2v-1.1h-4.2v1.1c0 0.2 0 0.2-0.2 0.2h-1.5c-0.2 0-0.2 0-0.2-0.2v-7h-4v9.9h14.2c0.2 0 0.2 0 0.2 0.2v1.4c0 0.2 0 0.2-0.2 0.2h-14.2v1.1c0 0.2 0 0.2-0.2 0.2h-1.5c-0.2 0-0.2 0-0.2-0.2v-12.7h-0.2zm12.2 0h-4.2v4.3h4.2zm24.1-6.7h3.3c0.2 0 0.2 0 0.2 0.2v8.4c0 0.2 0 0.2-0.2 0.2h-4.5c1.7 1.9 3.9 3.2 7.4 4.2-0.3 0.3-0.6 0.7-0.8 1.2-0.1 0.3-0.2 0.5-0.4 0.5-0.1 0-0.2 0-0.4-0.1-1.8-0.7-3.5-1.6-5-2.8q0 0.1 0 0.1c0 0.1-0.1 0.3-0.1 0.5-0.1 0.3-0.1 0.7-0.1 2.2v5c0 0.2 0 0.2-0.2 0.2h-1.5c-0.2 0-0.2 0-0.2-0.2v-5h0.1c0-1.5 0-2.2-0.2-3.1 0.7 0 1.3 0.1 1.9 0.1q0 0 0 0-1.4-1.2-2.5-2.8h-2.6q-1 1.5-2.3 2.7c0.6 0 1.3 0.1 1.8 0.2 0.3 0 0.4 0.1 0.4 0.3 0 0.1-0.1 0.3-0.1 0.4-0.1 0.3-0.1 0.7-0.2 1-0.2 2.9-1.6 5-5 6.3-0.2 0.1-0.3 0.1-0.4 0.1-0.1 0-0.2-0.1-0.4-0.4-0.2-0.4-0.6-0.7-1-1 3.5-0.9 4.7-2.5 5-5 0-0.7 0-1.4-0.1-1.9q-2.2 2-5.3 3.1c-0.2 0.1-0.3 0.1-0.4 0.1-0.1 0-0.2-0.1-0.4-0.5-0.2-0.4-0.5-0.8-0.8-1.1 3.1-0.9 5.5-2.3 7.1-4.4h-4.1c-0.2 0-0.2 0-0.2-0.2v-8.4c0-0.2 0-0.2 0.2-0.2h12zm-5.3 3.7v-2.1h-5.1v2.1zm0 3.5v-2.2h-5.1v2.2zm1.8-5.7v2.1h5.2v-2.1zm5.2 3.6h-5.2v2.2h5.2zm13.2-3.5c0.3 0.2 0.4 0.3 0.4 0.5 0 0.1 0 0.2-0.3 0.5-0.2 0.3-0.3 0.7-0.5 1.4-0.6 2.8-1 5.7-1 7.7 0 1.4 0.1 2.4 0.2 3.4 0.5-1.2 1-2.1 1.7-3.7 0.2 0.4 0.5 0.8 0.7 1.2 0.1 0.1 0.1 0.2 0.1 0.3 0 0.1 0 0.2-0.1 0.4-0.5 1.2-1 2.3-1.4 3.6-0.1 0.1-0.1 0.4-0.1 0.6v0.6c0 0.1 0 0.2-0.2 0.3-0.4 0.1-1 0.2-1.5 0.3q-0.1 0-0.3-0.3c-0.6-1.6-1-4.4-1-6.7 0-2.3 0.3-4.9 0.9-7.7 0.3-1.4 0.4-2 0.4-2.9 0.8 0 1.5 0.2 2 0.5zm4.8 10.9c0.1 0 0.2 0.1 0.2 0.3 0.1 1.7 1.4 2.4 3.9 2.4 1.7 0 3-0.1 4.5-0.3 0.2 0 0.3 0 0.3 0.3 0 0.4 0.1 1 0.1 1.5 0 0.2 0 0.3-0.3 0.3-1.5 0.2-2.7 0.3-4 0.3-2.9 0-4.4-0.4-5.4-1.6-0.6-0.7-0.9-1.7-0.9-2.9zm-0.8-8.6q0-0.3 0.3-0.3c1.4-0.2 3.8-0.4 4.9-0.4 1.4 0 2.6 0 3.3 0.1 0.4 0 0.4 0 0.4 0.3v1.4c0 0.2 0 0.3-0.3 0.2-1.1-0.1-2.5-0.1-3.7-0.1-1.4 0-3 0.1-5 0.5 0-1 0-1.4 0.1-1.7zm29.4 2.1c0.2 1.5 0.3 2.5 0.3 3.4 0 2.6-0.7 5.4-2.1 7-1.5 1.7-3 2.3-5.3 2.3-3.6 0-5.7-2.4-5.8-6.3 0-2.6 1-5.3 2.3-7 0.7-0.9 1.2-1.4 1.7-1.9-1 0.2-2 0.3-3.2 0.5-0.4 0.1-0.7 0.2-0.9 0.2-0.1 0-0.3-0.1-0.3-0.3-0.1-0.4-0.4-1.1-0.5-1.8 0.7 0.1 1.6 0.1 2.3 0 0.9-0.1 1.9-0.2 3-0.4 0.8-0.2 1.2-0.3 1.5-0.5q0.3-0.3 0.6 0c0.3 0.3 0.6 0.6 0.8 0.9 0.3 0.4 0.2 0.6-0.1 0.8-0.9 0.4-1.6 1.2-2.3 2-1.5 1.7-2.8 4.3-2.8 7.2 0 2.9 1.4 4.6 3.7 4.6 1.8 0 3.1-0.6 4.2-2.1 1.1-1.5 1.7-4.1 1.7-6.8 0-1.5 0-2.5-0.2-3.4 0-0.5-0.1-0.9-0.2-1.2-0.1-0.3-0.1-0.5-0.3-0.8-0.1-0.3-0.1-0.4 0.2-0.5 0.4-0.1 0.9-0.3 1.3-0.3 0.2 0 0.3 0.1 0.3 0.2 0.4 1.5 1 2.5 1.6 3.7 1.1 1.9 2.1 3.4 3.8 5 0.2 0.2 0.1 0.3 0 0.5-0.3 0.4-0.6 0.7-0.9 1.1-0.2 0.2-0.4 0.1-0.5-0.1-1.5-1.9-2.6-3.6-3.6-6.2zm14.9-5.7c0.2 0 0.3 0.2 0.3 0.3 0 0.3-0.1 0.5-0.1 0.9 0 0.5 0.1 1 0.1 1.5 0.2 1.7 0.4 3 0.8 4.3 1.3-0.6 2.4-1.2 3.7-1.9 0.7-0.4 1.1-0.7 1.4-1.1 0.6 0.6 1.1 1.2 1.4 1.7 0.2 0.3 0.2 0.7-0.3 0.8-0.6 0.1-1.4 0.4-2.1 0.7-1.8 0.8-3.7 1.7-5.3 2.6-2.2 1.3-3.1 2.5-3.1 3.9 0 1.7 1.5 2.3 4.7 2.3 2.3 0 4.5-0.2 6.3-0.5 0.2 0 0.3 0 0.4 0.2 0.1 0.5 0.1 1.1 0.2 1.6 0 0.2-0.1 0.3-0.3 0.4-2 0.2-3.7 0.3-6.4 0.3-4.2 0-6.8-1.1-6.8-4.2 0-2.4 1.6-4 4.4-5.8-0.6-1.7-1-4-1.2-5.8-0.1-1.1-0.3-1.8-0.5-2.4 0.8-0.1 1.8 0 2.4 0.2zm17.7 4.8c3.3-1.2 6.1-1.8 8-1.8 3.9 0 6.4 2.3 6.4 5.8 0 2.9-1.3 4.8-3.9 6.2-1.9 1-3.8 1.5-6 1.9-0.4 0.1-0.5 0-0.7-0.3-0.2-0.5-0.7-1-1.3-1.4 3-0.4 4.8-0.9 6.4-1.7 2-1.1 3.2-2.5 3.2-4.8 0-2.4-1.6-3.9-4.3-3.9-2.1 0-4.9 0.9-8.5 2.4-0.8 0.4-1.3 0.6-1.6 0.8-0.3 0.2-0.4 0.3-0.5 0.3-0.2 0-0.3-0.1-0.5-0.4-0.3-0.4-0.8-1.2-1.2-1.9 0.9-0.1 1.9-0.3 4.5-1.2zm23.3 11.9c0 1.8-1.5 3.2-3.3 3.2-1.8 0-3.3-1.4-3.3-3.2 0-1.8 1.5-3.2 3.3-3.2 1.8-0.1 3.3 1.4 3.3 3.2zm-5.3 0c0 1.1 0.9 2 2 2 1.1 0 2-0.9 2-2 0-1.1-0.9-2-2-2-1.1 0-2 0.9-2 2zm-140.1 14.7q0.3 0.1 0.3 0.3c0 0.1 0 0.2-0.1 0.3q-0.3 0.3-0.3 0.9c-0.1 0.5-0.1 0.9-0.2 1.4 2.1-0.2 3.9-0.5 6.2-1 0.2 0 0.3 0 0.3 0.2 0.1 0.3 0.2 0.8 0.2 1.2 0 0.2-0.2 0.3-0.4 0.4-2.9 0.6-4.6 0.8-6.6 1-0.1 1.1-0.2 1.9-0.2 2.9 1.1-0.3 2.6-0.6 3.9-0.6 0.2-0.5 0.4-1.2 0.4-1.8 0.7 0.2 1.3 0.5 1.6 0.7 0.2 0.1 0.3 0.3 0.3 0.4 0 0.1-0.1 0.3-0.2 0.4-0.1 0.2-0.2 0.3-0.3 0.5 3.2 0.6 4.9 2.7 4.9 5.5 0 3.5-3 5.4-6.6 6.3-0.4 0.1-0.6 0-0.8-0.3-0.1-0.3-0.5-0.7-1-1.1 1.7-0.3 3.4-1 4.4-1.7 1-0.7 1.9-1.7 1.9-3.6 0-2.2-1.7-3.4-3.5-3.7-1.2 2.5-2.7 4.5-4.4 6.2 0.1 0.5 0.3 0.8 0.5 1.2 0.1 0.2 0 0.3-0.1 0.4-0.4 0.3-0.8 0.5-1.1 0.6-0.2 0.1-0.3 0.1-0.4-0.1-0.1-0.3-0.3-0.6-0.4-1-1.7 1.3-3.1 1.8-4.2 1.8-1.5 0-2.3-1.1-2.3-2.6 0-2.6 2.2-5.5 5.4-7 0-1.2 0.1-2.3 0.2-3.3-1.3 0.1-2.1 0.1-2.6 0.1h-1.2c-0.2 0-0.3-0.1-0.3-0.4 0-0.4-0.1-0.8-0.1-1.3 1.5 0.1 2.8 0.1 4.5 0 0.1-0.8 0.2-1.6 0.2-2.2 0-0.6 0-0.9-0.1-1.3 1.1-0.1 1.8 0.1 2.2 0.3zm-6.2 14.7c0 0.6 0.3 1 0.9 1 0.7 0 1.8-0.5 3.2-1.6-0.3-1.4-0.5-2.8-0.5-4.3-2.3 1.4-3.6 3.4-3.6 4.9zm8.8-6.3c-1.1 0-2.3 0.3-3.5 0.7 0 1.4 0 2.7 0.3 3.9 1.2-1.1 2.5-3.2 3.2-4.6zm22.1-5.4c0.2-0.1 0.3 0 0.3 0.2 0.1 0.4 0.1 0.9 0.1 1.4 0 0.2 0 0.3-0.2 0.3-1.2 0.3-2.4 0.4-3.8 0.6-1.4 3.7-2.9 7.1-4.6 9.8-0.1 0.2-0.2 0.2-0.4 0.1-0.4-0.3-0.9-0.6-1.2-0.9-0.2-0.1-0.2-0.3 0-0.5 1.8-2.9 3.1-5.4 4.2-8.3-0.9 0.1-1.7 0.1-2.6 0.1h-1.2c-0.2 0-0.3 0-0.3-0.3-0.1-0.4-0.2-0.9-0.2-1.5 0.8 0.1 1.4 0.1 2 0.1 1 0 1.8 0 2.9-0.2 0.3-0.9 0.5-1.7 0.6-2.6 0.1-0.7 0.2-1.1 0.2-1.8 0.8 0.1 1.6 0.3 2.2 0.5 0.2 0 0.3 0.2 0.3 0.3 0 0.1 0 0.3-0.2 0.4-0.1 0.1-0.2 0.3-0.3 0.8-0.2 0.7-0.5 1.6-0.7 2.3 0.9-0.3 1.9-0.5 2.9-0.8zm1.1 5.8c0-0.5 0-0.9-0.2-1.5 0.8 0.1 1.4 0.2 2 0.3 0.2 0 0.3 0.2 0.3 0.3 0 0.1 0 0.2-0.1 0.4-0.1 0.3-0.1 0.6-0.1 1 0 1.4 0.1 2.6 0.3 4.1 1.7 0.7 2.9 1.3 4.2 2.2 0.2 0.1 0.2 0.2 0.1 0.4-0.2 0.5-0.5 1-0.8 1.4-0.1 0.2-0.3 0.2-0.4 0-1-0.9-2.1-1.5-3.2-2.1 0 2.3-1.4 3.5-4.2 3.5-2.1 0-3.9-1.1-3.9-3 0-1.9 1.7-3.1 4.1-3.1 0.6 0 1.3 0.1 2.1 0.2-0.1-1.3-0.2-2.9-0.2-4.1zm-1.8 5.7c-1.6 0-2.4 0.6-2.4 1.4 0 0.9 0.8 1.4 2.2 1.4 1.6 0 2.3-0.9 2.3-2v-0.5c-0.6-0.2-1.4-0.3-2.1-0.3zm4.1-10.7c0.1-0.2 0.2-0.2 0.4-0.1 1.5 0.4 3.2 1.2 4.5 2.2 0.2 0.1 0.2 0.2 0.1 0.5-0.2 0.4-0.5 0.9-0.7 1.3-0.1 0.2-0.2 0.2-0.3 0.1-1.4-1-3-1.9-4.7-2.4 0.2-0.7 0.5-1.3 0.7-1.6zm20.7-0.8c0.2 0 0.3 0 0.3 0.2 0.1 0.4 0.1 0.9 0.1 1.2 0 0.3 0 0.3-0.3 0.4-1.5 0.4-2.7 0.7-4.1 0.9-1.4 4.9-2.8 8.6-4.3 12.4-0.1 0.3-0.2 0.3-0.4 0.2-0.2-0.1-1.1-0.5-1.4-0.7-0.1-0.1-0.2-0.2-0.1-0.4 1.8-4 3.1-7.4 4.2-11.2-1.4 0.1-3 0.3-4.3 0.3-0.3 0-0.4 0-0.4-0.3-0.1-0.4-0.2-1-0.3-1.6h1.6c1.1 0 2.5-0.1 3.9-0.3 0.3-1.1 0.5-2 0.6-2.9 0.1-0.6 0.2-1.4 0.2-2.1 0.9 0.1 1.7 0.4 2.3 0.6 0.1 0.1 0.2 0.2 0.2 0.3 0 0.1 0 0.2-0.2 0.4-0.2 0.3-0.3 0.5-0.4 0.9-0.3 0.9-0.4 1.8-0.6 2.5 0.9 0 2.2-0.4 3.4-0.8zm-1 10.8q0.3 0 0.3 0.3c0.2 1.9 1.4 2.5 4 2.5 1.2 0 2.7-0.2 3.6-0.3 0.2 0 0.3 0 0.3 0.2 0.1 0.4 0.1 1 0.1 1.4 0 0.3 0 0.3-0.3 0.3-0.8 0.1-2 0.2-3.1 0.2-2.8 0-4.3-0.4-5.4-1.4-0.8-0.7-1-1.8-1.1-3.1 0.6 0 1.3-0.1 1.6-0.1zm0.2-6c0-0.3 0-0.3 0.3-0.4 1.4-0.3 2.9-0.5 4.2-0.5 0.9 0 1.9 0.1 2.8 0.2 0.3 0 0.3 0.1 0.3 0.3v1.3q0 0.4-0.3 0.3c-0.9-0.2-1.9-0.3-2.9-0.3-1.4 0-3 0.2-4.4 0.5zm18-6.4c0.3 0.2 0.4 0.3 0.4 0.5 0 0.1 0 0.2-0.3 0.5-0.2 0.3-0.3 0.7-0.5 1.4-0.6 2.8-1 5.7-1 7.7 0 1.4 0.1 2.4 0.2 3.4 0.5-1.2 1-2.1 1.7-3.7 0.2 0.4 0.5 0.8 0.7 1.2 0.1 0.1 0.1 0.2 0.1 0.3 0 0.1 0 0.2-0.1 0.4-0.5 1.2-1 2.3-1.4 3.6-0.1 0.1-0.1 0.4-0.1 0.6v0.6c0 0.1 0 0.2-0.2 0.3-0.4 0.1-1 0.2-1.5 0.3q-0.2 0-0.3-0.3c-0.6-1.6-1-4.4-1-6.7 0-2.3 0.3-4.9 0.9-7.7 0.3-1.4 0.4-2 0.4-2.9 0.8 0 1.5 0.2 2 0.5zm4.8 10.9c0.1 0 0.2 0.1 0.2 0.3 0.1 1.7 1.4 2.4 3.9 2.4 1.7 0 3-0.1 4.5-0.3 0.2 0 0.3 0 0.3 0.3 0 0.4 0.1 1 0.1 1.5 0 0.2 0 0.3-0.3 0.3-1.5 0.2-2.7 0.3-4 0.3-2.9 0-4.4-0.4-5.5-1.6-0.6-0.7-0.9-1.7-0.9-2.9zm-0.8-8.6q0-0.3 0.3-0.3c1.4-0.2 3.8-0.4 4.9-0.4 1.4 0 2.6 0 3.3 0.1 0.4 0 0.4 0 0.4 0.3v1.4c0 0.2 0 0.3-0.3 0.2-1.1-0.1-2.5-0.1-3.7-0.1-1.4 0-3 0.1-5 0.5 0-1 0-1.4 0.1-1.7zm29.4 2.1c0.2 1.5 0.3 2.5 0.3 3.4 0 2.6-0.7 5.4-2.1 7-1.5 1.7-3 2.3-5.3 2.3-3.6 0-5.7-2.4-5.8-6.3 0-2.6 1-5.3 2.3-7 0.7-0.9 1.2-1.4 1.7-1.9-1 0.2-2 0.3-3.2 0.5-0.4 0.1-0.7 0.2-0.9 0.2-0.1 0-0.3-0.1-0.3-0.3-0.1-0.4-0.4-1.1-0.5-1.8 0.7 0.1 1.6 0.1 2.3 0 0.9-0.1 1.9-0.2 3-0.4 0.8-0.2 1.2-0.3 1.5-0.5q0.3-0.3 0.6 0c0.3 0.3 0.6 0.6 0.8 0.9 0.3 0.4 0.2 0.6-0.1 0.8-0.9 0.4-1.6 1.2-2.3 2-1.5 1.7-2.8 4.3-2.8 7.2 0 2.9 1.4 4.6 3.7 4.6 1.8 0 3.1-0.6 4.2-2.1 1.1-1.5 1.7-4.1 1.7-6.8 0-1.5 0-2.5-0.2-3.4 0-0.5-0.1-0.9-0.2-1.2-0.1-0.3-0.1-0.5-0.3-0.8-0.1-0.3-0.1-0.4 0.2-0.5 0.4-0.1 0.9-0.3 1.3-0.3 0.2 0 0.3 0.1 0.3 0.2 0.4 1.5 1 2.5 1.6 3.7 1.1 1.9 2.1 3.4 3.8 5 0.2 0.2 0.1 0.3 0 0.5-0.3 0.4-0.6 0.7-0.9 1.1-0.2 0.2-0.4 0.1-0.5-0.1-1.5-1.9-2.6-3.6-3.6-6.2zm14.9-5.7c0.2 0 0.3 0.2 0.3 0.3 0 0.3-0.1 0.5-0.1 0.9 0 0.5 0.1 1 0.1 1.5 0.2 1.7 0.4 3 0.8 4.3 1.3-0.6 2.4-1.2 3.7-1.9 0.7-0.4 1.1-0.7 1.4-1.1 0.6 0.6 1.1 1.2 1.4 1.7 0.2 0.3 0.2 0.7-0.3 0.8-0.6 0.1-1.4 0.4-2.1 0.7-1.8 0.8-3.7 1.7-5.3 2.6-2.2 1.3-3.1 2.5-3.1 3.9 0 1.7 1.5 2.3 4.7 2.3 2.3 0 4.5-0.2 6.3-0.5 0.2 0 0.3 0 0.4 0.2 0.1 0.5 0.1 1.1 0.2 1.6 0 0.2-0.1 0.3-0.3 0.4-2 0.2-3.7 0.3-6.4 0.3-4.2 0-6.8-1.1-6.8-4.2 0-2.4 1.6-4 4.4-5.8-0.6-1.7-1-4-1.2-5.8-0.1-1.1-0.3-1.8-0.5-2.4 0.8-0.1 1.8 0 2.4 0.2zm17.7 4.8c3.3-1.2 6.1-1.8 8-1.8 3.9 0 6.4 2.3 6.4 5.8 0 2.9-1.3 4.8-3.9 6.2-1.9 1-3.8 1.5-6 1.9-0.4 0.1-0.5 0-0.7-0.3-0.2-0.5-0.7-1-1.3-1.4 3-0.4 4.8-0.9 6.4-1.7 2-1.1 3.2-2.5 3.2-4.8 0-2.4-1.6-3.9-4.3-3.9-2.1 0-4.9 0.9-8.5 2.4-0.8 0.4-1.3 0.6-1.6 0.8-0.3 0.2-0.4 0.3-0.5 0.3-0.2 0-0.3-0.1-0.5-0.4-0.3-0.4-0.8-1.2-1.2-1.9 0.9-0.1 1.9-0.3 4.5-1.2zm23.3 11.9c0 1.8-1.5 3.2-3.3 3.2-1.8 0-3.3-1.4-3.3-3.2 0-1.8 1.5-3.2 3.3-3.2 1.8-0.1 3.3 1.4 3.3 3.2zm-5.3 0c0 1.1 0.9 2 2 2 1.1 0 2-0.9 2-2 0-1.1-0.9-2-2-2-1.1 0-2 0.9-2 2z"/></svg>