<svg version="1.2" xmlns="http://www.w3.org/2000/svg" viewBox="0 0 183 118" width="183" height="118"><style>.a{fill:#fff}.b{fill:#1d5b99}.c{fill:#e7a83a}</style><path fill-rule="evenodd" class="a" d="m-5-37h192.8v192.8h-192.8z"/><path fill-rule="evenodd" class="b" d="m-2.2 0.8v117.1h187.1v-117.1z"/><path fill-rule="evenodd" class="a" d="m182.7 3v112.7h-182.7v-112.7z"/><path fill-rule="evenodd" class="b" d="m176.9 110.8v-102.3h-171.4v102.3z"/><path fill-rule="evenodd" class="c" d="m52.4 70.3c18.2-7.8 43.7-14.8 77.4-7.8l0.4-8.5c-35.6-3.9-61.2 7.4-77.8 15.5z"/><path fill-rule="evenodd" class="a" d="m19.6 76.6h17.1v5.2h-10.6l-0.1 4.7h10.6v5h-10.6v4.7h10.5v5.2h-16.9zm21.4-2.1h6.2l0.1 26.9h-6.3zm27.7 24.8c-2.1 1.8-5.3 2.7-8.2 2.7-6.5 0-9.5-4.6-9.5-9.3 0-5.4 4.1-10 9.7-10 6.9 0 9 4.8 9 11h-12.5c0 1.4 0.9 3.8 4.4 3.8 2.1 0 3.4-0.6 5-1.8zm-4.5-9.2c0-1.9-0.9-3.6-3-3.6-2 0-3.5 1.8-3.9 3.6zm24.5 10c-1.7 1.1-4.5 1.9-6.6 1.9-5.7 0-9.9-3.3-9.9-9.2 0-6.1 4.1-10.1 10.3-10.1 2.1 0 4.7 0.6 6.1 1.5l-2 4.1c-0.9-0.4-1.9-0.7-2.9-0.7-3.1 0-5.2 1.9-5.2 4.8 0 2.6 2 4.7 4.6 4.7 1.2 0 2.4-0.6 3.4-1.1zm2.3-16.8h2.8v-6.2h6l-0.1 6.2h5.1l-0.1 4.5h-5.1c0 2.5-0.2 5.2-0.2 6.7 0 1.6 0.4 2.3 1.8 2.3 0.8 0 1.6-0.4 2.3-0.8l1.3 4.2c-1.8 1.1-4 1.8-6.1 1.8-5.1 0-5.3-3.2-5.3-7.4 0-2.2 0.1-4.4 0.1-6.8h-2.6zm16.9 0h6.3v2.5h0.1c0.9-1.5 2.1-3 4.5-3 0.7 0 1.4 0.1 2.1 0.2l-0.8 6.2c-0.6-0.2-1.3-0.4-2.3-0.4-2 0-3.7 1.8-3.7 2.1l-0.1 10.5h-6.2zm24.2-0.7c6.7 0 10.1 4.2 10.1 9.7 0 5.4-3.4 9.7-10.1 9.7-6.6 0-10.1-4.3-10.1-9.7 0-5.5 3.5-9.7 10.1-9.7zm0 14.6c3 0 3.9-2.6 3.9-4.9 0-2.4-0.9-5-3.9-5-2.9 0-3.8 2.6-3.8 5 0 2.3 0.9 4.9 3.8 4.9zm13.5-13.9h6.3v1.9c1.4-1.4 3.6-2.6 5.8-2.6 3.8 0 5.9 2.1 5.9 7.1 0 3.7 0 7.6 0 11.6h-6.3c0-3.5 0.1-7 0.1-10.7 0-1.5-0.4-2.6-2.3-2.6-1 0-2.4 0.8-3.2 1.6l-0.1 11.7h-6.3zm-74.8-37.2l7.9-26h7l-7.9 26zm4.2-26l-14.7 26h-7.3l-2.3-20.6c-0.5-3.1-2.3-4.7-5.3-4.7l0.1-0.7h11.8l0.7 10.5c0.1 1.6 0.4 4.4 0.3 6.7h0.1c0.4-1.8 1.4-3.3 3-6.1l6.3-11.1zm47.3 26l-0.2-3.8-8.7-0.1-1.8 3.9h-7.7l13.9-25.9h9.3l2.4 25.9h-7.2zm-0.8-15.3c-0.1-1.9-0.1-4.5 0-6.1h-0.1c-0.4 1.3-2.3 5.2-3.1 7.1l-2.6 5.7h6.2zm-28.4 16c-5 0-8.3-1.6-10.7-3l3.4-5.1c2.1 1.2 3.8 2.6 7.6 2.6 1.2 0 2.4-0.4 3.1-1.5 0.9-1.7-0.3-2.6-3-4.2l-1.4-0.9c-4-2.7-5.8-5.4-3.9-10 1.2-2.9 4.5-5.2 9.8-5.2 3.7 0 7.1 1.6 9.1 3.2l-3.8 4.5c-2-1.6-3.6-2.4-5.5-2.4-1.4 0-2.6 0.6-2.9 1.3-0.8 1.5 0.2 2.5 2.3 3.8l1.6 1c5 3.2 6.2 6.4 4.9 9.5-2.1 5.2-6.3 6.4-10.6 6.4z"/></svg>